<?xml version="1.0" encoding="UTF-8" standalone="no"?>
<!-- Generator: Adobe Illustrator 19.0.0, SVG Export Plug-In . SVG Version: 6.00 Build 0)  -->

<svg
   xmlns:dc="http://purl.org/dc/elements/1.1/"
   xmlns:cc="http://creativecommons.org/ns#"
   xmlns:rdf="http://www.w3.org/1999/02/22-rdf-syntax-ns#"
   xmlns:svg="http://www.w3.org/2000/svg"
   xmlns="http://www.w3.org/2000/svg"
   xmlns:sodipodi="http://sodipodi.sourceforge.net/DTD/sodipodi-0.dtd"
   xmlns:inkscape="http://www.inkscape.org/namespaces/inkscape"
   version="1.1"
   id="Layer_1"
   x="0px"
   y="0px"
   viewBox="0 0 148.4995 148.4995"
   xml:space="preserve"
   width="256"
   height="256"
   sodipodi:docname="white-knight-resource.svg"
   inkscape:version="0.48.5 r10040"><metadata
     id="metadata47"><rdf:RDF><cc:Work
         rdf:about=""><dc:format>image/svg+xml</dc:format><dc:type
           rdf:resource="http://purl.org/dc/dcmitype/StillImage" /><dc:title></dc:title></cc:Work></rdf:RDF></metadata><defs
     id="defs45" /><sodipodi:namedview
     pagecolor="#ffffff"
     bordercolor="#666666"
     borderopacity="1"
     objecttolerance="10"
     gridtolerance="10"
     guidetolerance="10"
     inkscape:pageopacity="0"
     inkscape:pageshadow="2"
     inkscape:window-width="1920"
     inkscape:window-height="1024"
     id="namedview43"
     showgrid="false"
     inkscape:zoom="0.4609375"
     inkscape:cx="-821.15255"
     inkscape:cy="256"
     inkscape:window-x="0"
     inkscape:window-y="31"
     inkscape:window-maximized="1"
     inkscape:current-layer="Layer_1" /><g
     id="g10"
     inkscape:export-filename="/media/storage/repos/sw7-we/augmented-chess/src/assets/pieces/white/256/white-knight-256.png"
     inkscape:export-xdpi="88.27224"
     inkscape:export-ydpi="88.27224"
     style="fill:#ffffff;stroke:#000000;stroke-opacity:1;stroke-width:5.80076764;stroke-miterlimit:4;stroke-dasharray:none"
     transform="matrix(0.49999949,0,0,0.49999949,3.3572099,-2.5167855)"><g
       id="g8"
       style="fill:#ffffff;stroke:#000000;stroke-opacity:1;stroke-width:5.80076764;stroke-miterlimit:4;stroke-dasharray:none"><g
         id="g6"
         style="fill:#ffffff;stroke:#000000;stroke-opacity:1;stroke-width:5.80076764;stroke-miterlimit:4;stroke-dasharray:none"><path
           d="m 226.983,260.96 c -1.498,-4.201 -5.476,-7.007 -9.936,-7.007 H 57.231 c -5.099,0 -9.468,3.648 -10.378,8.666 l -4.773,26.333 c -0.218,1.204 -0.173,2.458 0.247,3.607 1.005,2.749 3.556,4.44 6.306,4.44 h 181.553 c 1.363,0 2.726,-0.345 3.854,-1.109 2.648,-1.794 3.598,-5.022 2.599,-7.826 l -9.656,-27.104 z"
           id="path2"
           style="fill:#ffffff;stroke:#000000;stroke-opacity:1;stroke-width:5.80076764;stroke-miterlimit:4;stroke-dasharray:none"
           inkscape:connector-curvature="0" /><path
           d="M 253.923,113.07 202.42,35.815 212.334,9.011 c 0.873,-2.361 0.347,-5.013 -1.362,-6.861 -1.71,-1.851 -4.314,-2.584 -6.733,-1.896 l -48.56,13.733 c -4.755,-0.085 -22.575,0.281 -42.344,9.337 -20.892,9.57 -47.981,30.99 -58.39,78.68 -14.367,65.826 -0.383,116.08 8.295,138.569 h 137.528 l 12.276,-12.276 c 2.226,-2.227 2.598,-5.703 0.895,-8.351 -11.321,-17.596 -38.038,-61.909 -48.365,-89.48 3.783,1.293 8.071,2.127 12.604,1.89 6.445,-0.337 12.327,-2.696 17.551,-7.028 l 18.855,12.571 c 5.825,3.884 13.047,5.081 19.815,3.284 6.768,-1.797 12.445,-6.42 15.577,-12.683 l 4.365,-8.729 c 1.074,-2.146 0.914,-4.704 -0.418,-6.701 z M 181.616,70.076 h -9.094 c -3.695,0 -6.689,-2.995 -6.689,-6.689 0,-3.695 2.995,-6.689 6.689,-6.689 h 9.094 c 3.695,0 6.689,2.995 6.689,6.689 0,3.695 -2.994,6.689 -6.689,6.689 z"
           id="path4"
           style="fill:#ffffff;stroke:#000000;stroke-opacity:1;stroke-width:5.80076764;stroke-miterlimit:4;stroke-dasharray:none"
           inkscape:connector-curvature="0" /></g></g></g><g
     id="g12"
     transform="translate(0,-148.4995)" /><g
     id="g14"
     transform="translate(0,-148.4995)" /><g
     id="g16"
     transform="translate(0,-148.4995)" /><g
     id="g18"
     transform="translate(0,-148.4995)" /><g
     id="g20"
     transform="translate(0,-148.4995)" /><g
     id="g22"
     transform="translate(0,-148.4995)" /><g
     id="g24"
     transform="translate(0,-148.4995)" /><g
     id="g26"
     transform="translate(0,-148.4995)" /><g
     id="g28"
     transform="translate(0,-148.4995)" /><g
     id="g30"
     transform="translate(0,-148.4995)" /><g
     id="g32"
     transform="translate(0,-148.4995)" /><g
     id="g34"
     transform="translate(0,-148.4995)" /><g
     id="g36"
     transform="translate(0,-148.4995)" /><g
     id="g38"
     transform="translate(0,-148.4995)" /><g
     id="g40"
     transform="translate(0,-148.4995)" /></svg>