<?xml version="1.0" encoding="UTF-8" standalone="no"?>
<!-- Generator: Adobe Illustrator 19.0.0, SVG Export Plug-In . SVG Version: 6.00 Build 0)  -->

<svg
   xmlns:dc="http://purl.org/dc/elements/1.1/"
   xmlns:cc="http://creativecommons.org/ns#"
   xmlns:rdf="http://www.w3.org/1999/02/22-rdf-syntax-ns#"
   xmlns:svg="http://www.w3.org/2000/svg"
   xmlns="http://www.w3.org/2000/svg"
   xmlns:sodipodi="http://sodipodi.sourceforge.net/DTD/sodipodi-0.dtd"
   xmlns:inkscape="http://www.inkscape.org/namespaces/inkscape"
   version="1.1"
   id="Layer_1"
   x="0px"
   y="0px"
   viewBox="0 0 512 512"
   style="enable-background:new 0 0 512 512;"
   xml:space="preserve"
   width="512px"
   height="512px"
   sodipodi:docname="white-pawn-resource.svg"
   inkscape:export-filename="/home/tgm/Downloads/peices/white/256/white-pawn-256.png"
   inkscape:export-xdpi="48"
   inkscape:export-ydpi="48"
   inkscape:version="0.92.1 r15371"><metadata
     id="metadata61"><rdf:RDF><cc:Work
         rdf:about=""><dc:format>image/svg+xml</dc:format><dc:type
           rdf:resource="http://purl.org/dc/dcmitype/StillImage" /></cc:Work></rdf:RDF></metadata><defs
     id="defs59" /><sodipodi:namedview
     pagecolor="#ffffff"
     bordercolor="#666666"
     borderopacity="1"
     objecttolerance="10"
     gridtolerance="10"
     guidetolerance="10"
     inkscape:pageopacity="0"
     inkscape:pageshadow="2"
     inkscape:window-width="1920"
     inkscape:window-height="1024"
     id="namedview57"
     showgrid="false"
     inkscape:zoom="0.4609375"
     inkscape:cx="-142.10169"
     inkscape:cy="256"
     inkscape:window-x="0"
     inkscape:window-y="31"
     inkscape:window-maximized="1"
     inkscape:current-layer="Layer_1" /><g
     id="g6"><g
       id="g4"><path
         d="M383.5,377h-255c-24.75,0-45,20.25-45,45h345C428.5,397.25,408.25,377,383.5,377z"
         fill="#FFDA44"
         id="path2" /></g></g><g
     id="g12"><g
       id="g10"><polygon
         points="428.5,482 428.5,452 83.5,452 83.5,482 38.5,482 38.5,512 473.5,512 473.5,482   "
         fill="#FFDA44"
         id="polygon8" /></g></g><g
     id="g18"><g
       id="g16"><rect
         x="143.5"
         y="302"
         width="225"
         height="45"
         fill="#FFDA44"
         id="rect14" /></g></g><g
     id="g24"><g
       id="g22"><path
         d="M361,165h-55.243C330.011,148.877,346,121.307,346,90c0-49.706-40.294-90-90-90s-90,40.294-90,90    c0,31.307,15.989,58.877,40.243,75H151v30h52.053l-18.934,77h143.763l-18.934-77H361V165z"
         fill="#FFDA44"
         id="path20" /></g></g><g
     id="g26" /><g
     id="g28" /><g
     id="g30" /><g
     id="g32" /><g
     id="g34" /><g
     id="g36" /><g
     id="g38" /><g
     id="g40" /><g
     id="g42" /><g
     id="g44" /><g
     id="g46" /><g
     id="g48" /><g
     id="g50" /><g
     id="g52" /><g
     id="g54" /></svg>