<?xml version="1.0" encoding="UTF-8" standalone="no"?>
<!-- Generator: Adobe Illustrator 19.0.0, SVG Export Plug-In . SVG Version: 6.00 Build 0)  -->

<svg
   xmlns:dc="http://purl.org/dc/elements/1.1/"
   xmlns:cc="http://creativecommons.org/ns#"
   xmlns:rdf="http://www.w3.org/1999/02/22-rdf-syntax-ns#"
   xmlns:svg="http://www.w3.org/2000/svg"
   xmlns="http://www.w3.org/2000/svg"
   xmlns:sodipodi="http://sodipodi.sourceforge.net/DTD/sodipodi-0.dtd"
   xmlns:inkscape="http://www.inkscape.org/namespaces/inkscape"
   version="1.1"
   id="Capa_1"
   x="0px"
   y="0px"
   viewBox="0 0 148.54 148.54"
   xml:space="preserve"
   width="256"
   height="256"
   sodipodi:docname="white-bishop-resource.svg"
   inkscape:export-filename="/home/tgm/Downloads/peices/white/256/white-bishop-256.png"
   inkscape:export-xdpi="48"
   inkscape:export-ydpi="48"
   inkscape:version="0.48.5 r10040"><metadata
     id="metadata41"><rdf:RDF><cc:Work
         rdf:about=""><dc:format>image/svg+xml</dc:format><dc:type
           rdf:resource="http://purl.org/dc/dcmitype/StillImage" /><dc:title></dc:title></cc:Work></rdf:RDF></metadata><defs
     id="defs39" /><sodipodi:namedview
     pagecolor="#ffffff"
     bordercolor="#666666"
     borderopacity="1"
     objecttolerance="10"
     gridtolerance="10"
     guidetolerance="10"
     inkscape:pageopacity="0"
     inkscape:pageshadow="2"
     inkscape:window-width="1920"
     inkscape:window-height="1024"
     id="namedview37"
     showgrid="false"
     inkscape:zoom="0.85"
     inkscape:cx="-458"
     inkscape:cy="256"
     inkscape:window-x="0"
     inkscape:window-y="31"
     inkscape:window-maximized="1"
     inkscape:current-layer="Capa_1" /><g
     id="g4"
     style="fill:#ffffff;stroke:#000000;stroke-opacity:1;stroke-width:5.80234375;stroke-miterlimit:4;stroke-dasharray:none;stroke-linejoin:round"
     inkscape:export-filename="/media/storage/repos/sw7-we/augmented-chess/src/assets/pieces/white/256/white-bishop-256.png"
     inkscape:export-xdpi="88.278008"
     inkscape:export-ydpi="88.278008"
     transform="matrix(0.5,0,0,0.5,2.2467797,-1.2588136)"><path
       d="m 206.873,255.08 h -3.41 c 2.214,-3.337 8.32,-14.536 -0.712,-25.6 -8.9,-10.905 -25.137,-39.546 -24.448,-64.4 h 3.57 c 4.418,0 7.667,-3.582 7.667,-8 v -1 c 0,-4.418 -3.249,-8 -7.667,-8 h -4.333 v -4.285 c 13,-8.971 20.511,-23.502 20.511,-39.914 0,-10.332 -7.011,-26.11 -15.819,-41.721 l -18.553,18.595 c -3.111,3.111 -8.182,3.111 -11.294,0.001 l -0.921,-0.933 c -3.111,-3.11 -3.106,-8.202 0.005,-11.313 l 21.676,-21.674 c -4.444,-7.069 -8.869,-13.678 -12.703,-19.224 2.881,-2.93 4.663,-6.944 4.663,-11.379 C 165.106,7.268 157.841,0 148.874,0 139.907,0 132.64,7.268 132.64,16.233 c 0,4.434 1.781,8.448 4.662,11.379 -14.585,21.101 -37.94,57.587 -37.94,76.269 0,16.853 8.178,31.724 21.178,40.625 v 3.574 h -4.667 c -4.418,0 -8.333,3.582 -8.333,8 v 1 c 0,4.418 3.915,8 8.333,8 h 3.571 c 0.689,24.855 -15.547,53.495 -24.448,64.4 -9.031,11.064 -2.926,22.263 -0.712,25.6 h -3.411 c -4.418,0 -8.333,3.582 -8.333,8 v 9 c 0,4.078 3,7.438 7,7.931 v 17.069 h 118 v -17.069 c 4,-0.493 7,-3.853 7,-7.931 v -9 c 0,-4.418 -3.249,-8 -7.667,-8 z"
       id="path2"
       style="fill:#ffffff;stroke:#000000;stroke-opacity:1;stroke-width:5.80234375;stroke-miterlimit:4;stroke-dasharray:none;stroke-linejoin:round"
       inkscape:connector-curvature="0" /></g><g
     id="g6"
     transform="translate(0,-148.54)" /><g
     id="g8"
     transform="translate(0,-148.54)" /><g
     id="g10"
     transform="translate(0,-148.54)" /><g
     id="g12"
     transform="translate(0,-148.54)" /><g
     id="g14"
     transform="translate(0,-148.54)" /><g
     id="g16"
     transform="translate(0,-148.54)" /><g
     id="g18"
     transform="translate(0,-148.54)" /><g
     id="g20"
     transform="translate(0,-148.54)" /><g
     id="g22"
     transform="translate(0,-148.54)" /><g
     id="g24"
     transform="translate(0,-148.54)" /><g
     id="g26"
     transform="translate(0,-148.54)" /><g
     id="g28"
     transform="translate(0,-148.54)" /><g
     id="g30"
     transform="translate(0,-148.54)" /><g
     id="g32"
     transform="translate(0,-148.54)" /><g
     id="g34"
     transform="translate(0,-148.54)" /></svg>