<?xml version="1.0" encoding="UTF-8" standalone="no"?>
<!-- Generator: Adobe Illustrator 19.0.0, SVG Export Plug-In . SVG Version: 6.00 Build 0)  -->

<svg
   xmlns:dc="http://purl.org/dc/elements/1.1/"
   xmlns:cc="http://creativecommons.org/ns#"
   xmlns:rdf="http://www.w3.org/1999/02/22-rdf-syntax-ns#"
   xmlns:svg="http://www.w3.org/2000/svg"
   xmlns="http://www.w3.org/2000/svg"
   xmlns:sodipodi="http://sodipodi.sourceforge.net/DTD/sodipodi-0.dtd"
   xmlns:inkscape="http://www.inkscape.org/namespaces/inkscape"
   version="1.1"
   id="Capa_1"
   x="0px"
   y="0px"
   viewBox="0 0 297.08 297.08"
   style="enable-background:new 0 0 297.08 297.08;"
   xml:space="preserve"
   width="512px"
   height="512px"
   sodipodi:docname="white-bishop-resource.svg"
   inkscape:export-filename="/home/tgm/Downloads/peices/white/256/white-bishop-256.png"
   inkscape:export-xdpi="48"
   inkscape:export-ydpi="48"
   inkscape:version="0.48.5 r10040"><metadata
     id="metadata41"><rdf:RDF><cc:Work
         rdf:about=""><dc:format>image/svg+xml</dc:format><dc:type
           rdf:resource="http://purl.org/dc/dcmitype/StillImage" /><dc:title></dc:title></cc:Work></rdf:RDF></metadata><defs
     id="defs39" /><sodipodi:namedview
     pagecolor="#ffffff"
     bordercolor="#666666"
     borderopacity="1"
     objecttolerance="10"
     gridtolerance="10"
     guidetolerance="10"
     inkscape:pageopacity="0"
     inkscape:pageshadow="2"
     inkscape:window-width="1920"
     inkscape:window-height="1024"
     id="namedview37"
     showgrid="false"
     inkscape:zoom="0.4609375"
     inkscape:cx="-137.76271"
     inkscape:cy="256"
     inkscape:window-x="0"
     inkscape:window-y="31"
     inkscape:window-maximized="1"
     inkscape:current-layer="Capa_1" /><g
     id="g4"
     style="fill:#ffffff"
     inkscape:export-filename="/media/storage/repos/sw7-we/augmented-chess/src/assets/pieces/white/256/white-bishop-256.png"
     inkscape:export-xdpi="45"
     inkscape:export-ydpi="45"><path
       d="M206.873,255.08h-3.41c2.214-3.337,8.32-14.536-0.712-25.6c-8.9-10.905-25.137-39.546-24.448-64.4h3.57   c4.418,0,7.667-3.582,7.667-8v-1c0-4.418-3.249-8-7.667-8h-4.333v-4.285c13-8.971,20.511-23.502,20.511-39.914   c0-10.332-7.011-26.11-15.819-41.721l-18.553,18.595c-3.111,3.111-8.182,3.111-11.294,0.001l-0.921-0.933   c-3.111-3.11-3.106-8.202,0.005-11.313l21.676-21.674c-4.444-7.069-8.869-13.678-12.703-19.224   c2.881-2.93,4.663-6.944,4.663-11.379C165.106,7.268,157.841,0,148.874,0c-8.967,0-16.234,7.268-16.234,16.233   c0,4.434,1.781,8.448,4.662,11.379c-14.585,21.101-37.94,57.587-37.94,76.269c0,16.853,8.178,31.724,21.178,40.625v3.574h-4.667   c-4.418,0-8.333,3.582-8.333,8v1c0,4.418,3.915,8,8.333,8h3.571c0.689,24.855-15.547,53.495-24.448,64.4   c-9.031,11.064-2.926,22.263-0.712,25.6h-3.411c-4.418,0-8.333,3.582-8.333,8v9c0,4.078,3,7.438,7,7.931v17.069h118v-17.069   c4-0.493,7-3.853,7-7.931v-9C214.54,258.662,211.291,255.08,206.873,255.08z"
       fill="#FFDA44"
       id="path2"
       style="fill:#ffffff" /></g><g
     id="g6" /><g
     id="g8" /><g
     id="g10" /><g
     id="g12" /><g
     id="g14" /><g
     id="g16" /><g
     id="g18" /><g
     id="g20" /><g
     id="g22" /><g
     id="g24" /><g
     id="g26" /><g
     id="g28" /><g
     id="g30" /><g
     id="g32" /><g
     id="g34" /></svg>