<?xml version="1.0" encoding="UTF-8" standalone="no"?>
<!-- Generator: Adobe Illustrator 19.0.0, SVG Export Plug-In . SVG Version: 6.00 Build 0)  -->

<svg
   xmlns:dc="http://purl.org/dc/elements/1.1/"
   xmlns:cc="http://creativecommons.org/ns#"
   xmlns:rdf="http://www.w3.org/1999/02/22-rdf-syntax-ns#"
   xmlns:svg="http://www.w3.org/2000/svg"
   xmlns="http://www.w3.org/2000/svg"
   xmlns:sodipodi="http://sodipodi.sourceforge.net/DTD/sodipodi-0.dtd"
   xmlns:inkscape="http://www.inkscape.org/namespaces/inkscape"
   version="1.1"
   id="Layer_1"
   x="0px"
   y="0px"
   viewBox="0 0 296.999 296.999"
   style="enable-background:new 0 0 296.999 296.999;"
   xml:space="preserve"
   width="512px"
   height="512px"
   sodipodi:docname="white-knight-resource.svg"
   inkscape:version="0.92.1 r15371"><metadata
     id="metadata47"><rdf:RDF><cc:Work
         rdf:about=""><dc:format>image/svg+xml</dc:format><dc:type
           rdf:resource="http://purl.org/dc/dcmitype/StillImage" /></cc:Work></rdf:RDF></metadata><defs
     id="defs45" /><sodipodi:namedview
     pagecolor="#ffffff"
     bordercolor="#666666"
     borderopacity="1"
     objecttolerance="10"
     gridtolerance="10"
     guidetolerance="10"
     inkscape:pageopacity="0"
     inkscape:pageshadow="2"
     inkscape:window-width="1920"
     inkscape:window-height="1024"
     id="namedview43"
     showgrid="false"
     inkscape:zoom="0.4609375"
     inkscape:cx="-142.10169"
     inkscape:cy="256"
     inkscape:window-x="0"
     inkscape:window-y="31"
     inkscape:window-maximized="1"
     inkscape:current-layer="Layer_1" /><g
     id="g10"
     inkscape:export-filename="/home/tgm/Downloads/peices/white/256/white-knight-256.png"
     inkscape:export-xdpi="47.99995"
     inkscape:export-ydpi="47.99995"><g
       id="g8"><g
         id="g6"><path
           d="M226.983,260.96c-1.498-4.201-5.476-7.007-9.936-7.007H57.231c-5.099,0-9.468,3.648-10.378,8.666l-4.773,26.333     c-0.218,1.204-0.173,2.458,0.247,3.607c1.005,2.749,3.556,4.44,6.306,4.44h181.553c1.363,0,2.726-0.345,3.854-1.109     c2.648-1.794,3.598-5.022,2.599-7.826L226.983,260.96z"
           fill="#FFDA44"
           id="path2" /><path
           d="M253.923,113.07L202.42,35.815l9.914-26.804c0.873-2.361,0.347-5.013-1.362-6.861c-1.71-1.851-4.314-2.584-6.733-1.896     l-48.56,13.733c-4.755-0.085-22.575,0.281-42.344,9.337c-20.892,9.57-47.981,30.99-58.39,78.68     c-14.367,65.826-0.383,116.08,8.295,138.569h137.528l12.276-12.276c2.226-2.227,2.598-5.703,0.895-8.351     c-11.321-17.596-38.038-61.909-48.365-89.48c3.783,1.293,8.071,2.127,12.604,1.89c6.445-0.337,12.327-2.696,17.551-7.028     l18.855,12.571c5.825,3.884,13.047,5.081,19.815,3.284s12.445-6.42,15.577-12.683l4.365-8.729     C255.415,117.625,255.255,115.067,253.923,113.07z M181.616,70.076h-9.094c-3.695,0-6.689-2.995-6.689-6.689     c0-3.695,2.995-6.689,6.689-6.689h9.094c3.695,0,6.689,2.995,6.689,6.689C188.305,67.082,185.311,70.076,181.616,70.076z"
           fill="#FFDA44"
           id="path4" /></g></g></g><g
     id="g12" /><g
     id="g14" /><g
     id="g16" /><g
     id="g18" /><g
     id="g20" /><g
     id="g22" /><g
     id="g24" /><g
     id="g26" /><g
     id="g28" /><g
     id="g30" /><g
     id="g32" /><g
     id="g34" /><g
     id="g36" /><g
     id="g38" /><g
     id="g40" /></svg>