<?xml version="1.0" encoding="UTF-8" standalone="no"?>
<!-- Generator: Adobe Illustrator 16.0.0, SVG Export Plug-In . SVG Version: 6.00 Build 0)  -->

<svg
   xmlns:dc="http://purl.org/dc/elements/1.1/"
   xmlns:cc="http://creativecommons.org/ns#"
   xmlns:rdf="http://www.w3.org/1999/02/22-rdf-syntax-ns#"
   xmlns:svg="http://www.w3.org/2000/svg"
   xmlns="http://www.w3.org/2000/svg"
   xmlns:sodipodi="http://sodipodi.sourceforge.net/DTD/sodipodi-0.dtd"
   xmlns:inkscape="http://www.inkscape.org/namespaces/inkscape"
   version="1.1"
   id="Capa_1"
   x="0px"
   y="0px"
   width="256"
   height="256"
   viewBox="0 0 20.6625 20.6625"
   xml:space="preserve"
   sodipodi:docname="black-king-resource.svg"
   inkscape:export-filename="/home/tgm/Downloads/peices/white/256/white-king-256.png"
   inkscape:export-xdpi="48"
   inkscape:export-ydpi="48"
   inkscape:version="0.48.5 r10040"><metadata
     id="metadata41"><rdf:RDF><cc:Work
         rdf:about=""><dc:format>image/svg+xml</dc:format><dc:type
           rdf:resource="http://purl.org/dc/dcmitype/StillImage" /><dc:title></dc:title></cc:Work></rdf:RDF></metadata><defs
     id="defs39" /><sodipodi:namedview
     pagecolor="#ffffff"
     bordercolor="#666666"
     borderopacity="1"
     objecttolerance="10"
     gridtolerance="10"
     guidetolerance="10"
     inkscape:pageopacity="0"
     inkscape:pageshadow="2"
     inkscape:window-width="1920"
     inkscape:window-height="1024"
     id="namedview37"
     showgrid="false"
     inkscape:zoom="1"
     inkscape:cx="-32.209915"
     inkscape:cy="247.32203"
     inkscape:window-x="0"
     inkscape:window-y="31"
     inkscape:window-maximized="1"
     inkscape:current-layer="Capa_1" /><g
     id="g4"
     style="fill:#000000;stroke:#ffffff;stroke-opacity:1;stroke-width:0.80712890999999998;stroke-miterlimit:4;stroke-dasharray:none;stroke-linejoin:round;fill-opacity:1"
     inkscape:export-filename="/media/storage/repos/sw7-we/augmented-chess/src/assets/pieces/black/256/black-king-256.png"
     inkscape:export-xdpi="88.290779"
     inkscape:export-ydpi="88.290779"
     transform="matrix(0.5,0,0,0.5,0.04873538,-0.17510593)"><path
       d="m 27.615,40.452 c 0.106,0.283 0.143,0.873 0.143,0.873 H 13.571 c 0,0 0.002,-0.595 0.127,-0.896 0.125,-0.299 0.498,-0.576 0.498,-0.576 h 0.05 c 0.02,-0.063 0.039,-0.133 0.056,-0.203 H 14.28 c -0.591,-0.772 -0.947,-1.92 -0.862,-3.104 0.085,-1.184 0.949,-2.379 1.532,-3.299 l 0.023,-0.09 c -0.021,-0.068 0.006,-0.052 -0.005,-0.123 -0.169,-0.043 -0.484,-0.32 -0.394,-0.66 0.113,-0.461 0.526,-0.562 0.672,-0.562 h 0.073 L 15.345,31.72 15.34,31.627 c 1.442,-3.293 2.606,-5.104 2.997,-11.321 -0.042,-0.074 -0.084,-0.148 -0.122,-0.222 -0.752,0 -1.372,0 -1.401,-0.002 -0.098,-0.011 -0.801,-0.418 -0.739,-1.068 0.072,-0.812 0.799,-1.105 0.893,-1.105 0.022,0 0.276,0 0.64,0 l 0.209,-3.7 c 0,0 -2.284,-3.409 -2.638,-3.979 -0.254,-0.413 -0.486,-0.945 -0.486,-1.472 0,-1.196 0.951,-2.17 2.123,-2.17 0.339,0 0.866,0.001 1.205,0.001 0,0 0,-0.386 0,-0.531 0,-0.345 0.272,-0.622 0.609,-0.622 0.658,0 3.525,0 4.07,0 0.335,0 0.606,0.277 0.606,0.622 0,0.146 0,0.531 0,0.531 0.34,0 0.865,-0.001 1.204,-0.001 1.173,0 2.123,0.973 2.123,2.17 0,0.525 -0.229,1.059 -0.486,1.472 -0.354,0.57 -2.608,3.889 -2.608,3.889 l 0.181,3.792 c 0.377,0 0.634,0 0.655,0 0.094,0 0.781,0.349 0.854,1.163 0.062,0.648 -0.601,1.001 -0.698,1.012 -0.027,0.002 -0.645,0.002 -1.406,0.002 -0.011,0.155 -0.047,0.325 -0.114,0.511 0.415,5.979 1.771,7.791 3.188,11.032 l 0.003,0.064 -0.002,0.116 c 0.066,0 0.108,0 0.12,0 0.146,0 0.56,0.103 0.672,0.562 0.098,0.369 -0.277,0.664 -0.433,0.67 l -0.078,0.076 c 0.008,0.072 0.062,0.08 0.058,0.17 0.663,1.006 1.297,2.301 1.372,3.486 0.066,1.104 -0.239,1.998 -0.773,2.746 0.02,0.129 0.025,0.248 0.021,0.354 0.081,0.075 0.363,0.337 0.456,0.577 z M 18.824,3.601 c 0.546,-0.559 1.191,-0.803 1.445,-0.546 0.25,0.26 0.012,0.921 -0.534,1.477 -0.084,0.086 -0.173,0.165 -0.259,0.233 0.378,0.237 0.825,0.372 1.298,0.372 0.47,-10e-4 0.909,-0.133 1.285,-0.358 C 21.964,4.705 21.871,4.624 21.784,4.531 21.238,3.972 20.999,3.314 21.25,3.055 c 0.251,-0.258 0.898,-0.013 1.444,0.546 0.09,0.091 0.17,0.185 0.242,0.28 0.224,-0.385 0.352,-0.833 0.352,-1.312 0,-0.484 -0.131,-0.938 -0.361,-1.325 C 22.865,1.325 22.792,1.409 22.713,1.487 22.167,2.047 21.521,2.29 21.27,2.032 21.019,1.776 21.256,1.115 21.802,0.556 21.877,0.48 21.953,0.41 22.031,0.346 21.66,0.125 21.231,0 20.773,0 c -0.457,0 -0.886,0.127 -1.256,0.346 0.089,0.069 0.178,0.15 0.261,0.236 0.545,0.56 0.785,1.22 0.533,1.477 -0.251,0.256 -0.897,0.013 -1.443,-0.544 -0.089,-0.093 -0.17,-0.186 -0.242,-0.279 -0.23,0.388 -0.364,0.845 -0.364,1.335 0,0.466 0.123,0.907 0.336,1.285 0.07,-0.086 0.143,-0.173 0.226,-0.255 z"
       id="path2"
       style="fill:#000000;stroke:#ffffff;stroke-opacity:1;stroke-width:0.80712890999999998;stroke-miterlimit:4;stroke-dasharray:none;stroke-linejoin:round;fill-opacity:1"
       inkscape:connector-curvature="0" /></g><g
     id="g6"
     transform="translate(0,-20.6625)" /><g
     id="g8"
     transform="translate(0,-20.6625)" /><g
     id="g10"
     transform="translate(0,-20.6625)" /><g
     id="g12"
     transform="translate(0,-20.6625)" /><g
     id="g14"
     transform="translate(0,-20.6625)" /><g
     id="g16"
     transform="translate(0,-20.6625)" /><g
     id="g18"
     transform="translate(0,-20.6625)" /><g
     id="g20"
     transform="translate(0,-20.6625)" /><g
     id="g22"
     transform="translate(0,-20.6625)" /><g
     id="g24"
     transform="translate(0,-20.6625)" /><g
     id="g26"
     transform="translate(0,-20.6625)" /><g
     id="g28"
     transform="translate(0,-20.6625)" /><g
     id="g30"
     transform="translate(0,-20.6625)" /><g
     id="g32"
     transform="translate(0,-20.6625)" /><g
     id="g34"
     transform="translate(0,-20.6625)" /></svg>