<?xml version="1.0" encoding="UTF-8" standalone="no"?>
<!-- Generator: Adobe Illustrator 16.0.0, SVG Export Plug-In . SVG Version: 6.00 Build 0)  -->

<svg
   xmlns:dc="http://purl.org/dc/elements/1.1/"
   xmlns:cc="http://creativecommons.org/ns#"
   xmlns:rdf="http://www.w3.org/1999/02/22-rdf-syntax-ns#"
   xmlns:svg="http://www.w3.org/2000/svg"
   xmlns="http://www.w3.org/2000/svg"
   xmlns:sodipodi="http://sodipodi.sourceforge.net/DTD/sodipodi-0.dtd"
   xmlns:inkscape="http://www.inkscape.org/namespaces/inkscape"
   version="1.1"
   id="Capa_1"
   x="0px"
   y="0px"
   width="256"
   height="256"
   viewBox="0 0 21.2845 21.284"
   xml:space="preserve"
   sodipodi:docname="black-queen-resource.svg"
   inkscape:export-filename="/home/tgm/Downloads/peices/white/256/white-queen-256.png"
   inkscape:export-xdpi="47.998875"
   inkscape:export-ydpi="47.998875"
   inkscape:version="0.48.5 r10040"><metadata
     id="metadata41"><rdf:RDF><cc:Work
         rdf:about=""><dc:format>image/svg+xml</dc:format><dc:type
           rdf:resource="http://purl.org/dc/dcmitype/StillImage" /><dc:title></dc:title></cc:Work></rdf:RDF></metadata><defs
     id="defs39" /><sodipodi:namedview
     pagecolor="#ffffff"
     bordercolor="#666666"
     borderopacity="1"
     objecttolerance="10"
     gridtolerance="10"
     guidetolerance="10"
     inkscape:pageopacity="0"
     inkscape:pageshadow="2"
     inkscape:window-width="1920"
     inkscape:window-height="1024"
     id="namedview37"
     showgrid="false"
     inkscape:zoom="0.4609375"
     inkscape:cx="-1165.017"
     inkscape:cy="256"
     inkscape:window-x="0"
     inkscape:window-y="31"
     inkscape:window-maximized="1"
     inkscape:current-layer="Capa_1" /><g
     id="g4"
     inkscape:export-filename="/media/storage/repos/sw7-we/augmented-chess/src/assets/pieces/black/256/black-queen-256.png"
     inkscape:export-xdpi="88.264534"
     inkscape:export-ydpi="88.264534"
     style="fill:#000000;stroke:#ffffff;stroke-opacity:1;stroke-width:0.83144532000000004;stroke-miterlimit:4;stroke-dasharray:none;stroke-linejoin:round;fill-opacity:1"
     transform="matrix(0.49998825,0,0,0.49998825,0.15644175,10e-4)"><path
       d="M 18.844,2.684 C 18.844,1.202 20.046,0 21.529,0 c 1.481,0 2.684,1.2 2.684,2.684 0,1.484 -1.201,2.685 -2.684,2.685 -1.484,0 -2.685,-1.202 -2.685,-2.685 z m 9.912,38.276 h -0.004 c -0.02,-0.077 -0.044,-0.161 -0.071,-0.248 0.646,-0.839 1.02,-1.849 0.939,-3.108 -0.083,-1.31 -0.806,-2.741 -1.555,-3.844 h -0.021 c 0.023,-0.074 0.042,-0.15 0.06,-0.225 h 0.013 c 0.171,-0.007 0.589,-0.327 0.48,-0.729 -0.125,-0.5 -0.585,-0.61 -0.749,-0.61 h -0.026 c -0.04,-0.084 -0.093,-0.175 -0.161,-0.271 h 0.015 C 26.049,28.944 24.499,26.317 24.062,19.487 h -0.003 l 0.018,-0.194 c 1.026,0 1.895,0 1.93,-10e-4 0.119,-0.015 0.922,-0.431 0.848,-1.203 -0.088,-0.967 -0.921,-1.38 -1.034,-1.38 -0.038,0 -0.613,0 -1.36,0 L 24.466,16.68 C 24.233,12.848 26.154,9.423 27.665,8.359 28.151,8.018 28.816,7.248 28.167,6.32 27.699,5.651 26.996,5.669 26.696,5.753 26.394,5.836 25.81,6.32 25.125,6.32 24.53,6.32 23.955,6.069 23.478,5.758 L 23.281,5.604 23.268,5.614 23.25,5.603 23.15,5.696 c -0.492,0.347 -1.084,0.689 -1.713,0.689 -0.69,0 -1.322,-0.404 -1.84,-0.782 -0.518,0.378 -1.182,0.715 -1.872,0.715 -0.685,0 -1.27,-0.484 -1.572,-0.567 -0.3,-0.084 -1.003,-0.102 -1.471,0.567 -0.649,0.928 0.017,1.698 0.501,2.039 1.516,1.067 3.445,4.506 3.2,8.352 -0.828,0 -1.506,0 -1.549,0 -0.114,0 -0.995,0.347 -1.082,1.312 -0.076,0.774 0.775,1.257 0.895,1.271 0.04,10e-4 1.03,10e-4 2.124,10e-4 l 0.069,0.194 h -0.022 c -0.439,6.829 -1.952,9.368 -3.601,12.438 h 0.008 c -0.066,0.099 -0.111,0.188 -0.145,0.271 h -0.09 c -0.165,0 -0.624,0.11 -0.749,0.61 -0.106,0.389 0.281,0.701 0.462,0.727 -0.014,0.072 -0.026,0.146 -0.035,0.229 h -0.01 c -0.649,1 -1.612,2.303 -1.705,3.594 -0.094,1.275 0.292,2.51 0.936,3.351 -0.018,0.093 -0.031,0.181 -0.035,0.259 h -0.037 c 0,0 -0.413,0.303 -0.552,0.627 -0.14,0.326 -0.143,0.977 -0.143,0.977 h 16.327 c 0,0 -0.038,-0.646 -0.159,-0.953 -0.118,-0.314 -0.534,-0.657 -0.534,-0.657 z"
       id="path2"
       style="fill:#000000;stroke:#ffffff;stroke-opacity:1;stroke-width:0.83144532000000004;stroke-miterlimit:4;stroke-dasharray:none;stroke-linejoin:round;fill-opacity:1"
       inkscape:connector-curvature="0" /></g><g
     id="g6"
     transform="translate(0,-21.2845)" /><g
     id="g8"
     transform="translate(0,-21.2845)" /><g
     id="g10"
     transform="translate(0,-21.2845)" /><g
     id="g12"
     transform="translate(0,-21.2845)" /><g
     id="g14"
     transform="translate(0,-21.2845)" /><g
     id="g16"
     transform="translate(0,-21.2845)" /><g
     id="g18"
     transform="translate(0,-21.2845)" /><g
     id="g20"
     transform="translate(0,-21.2845)" /><g
     id="g22"
     transform="translate(0,-21.2845)" /><g
     id="g24"
     transform="translate(0,-21.2845)" /><g
     id="g26"
     transform="translate(0,-21.2845)" /><g
     id="g28"
     transform="translate(0,-21.2845)" /><g
     id="g30"
     transform="translate(0,-21.2845)" /><g
     id="g32"
     transform="translate(0,-21.2845)" /><g
     id="g34"
     transform="translate(0,-21.2845)" /></svg>